<?xml version="1.0" encoding="iso-8859-1"?>
<!-- Generator: Adobe Illustrator 16.0.0, SVG Export Plug-In . SVG Version: 6.00 Build 0)  -->
<!DOCTYPE svg PUBLIC "-//W3C//DTD SVG 1.1//EN" "http://www.w3.org/Graphics/SVG/1.1/DTD/svg11.dtd">
<svg version="1.1" id="Capa_1" xmlns="http://www.w3.org/2000/svg" xmlns:xlink="http://www.w3.org/1999/xlink" x="0px" y="0px"
	 width="94px" height="94px" viewBox="0 0 94 94" style="enable-background:new 0 0 94 94;" xml:space="preserve">
<g>
	<g>
		<path d="M64.748,32.155h8.781c1.923,0,3.496-1.574,3.496-3.498v-8.371c0-1.925-1.573-3.498-3.496-3.498h-8.781
			c-1.924,0-3.497,1.573-3.497,3.498v8.371C61.251,30.581,62.824,32.155,64.748,32.155z"/>
		<ellipse cx="47.074" cy="46.831" rx="15.602" ry="15.117"/>
		<path d="M89,0H5C2.239,0,0,2.239,0,5v84c0,2.761,2.239,5,5,5h84c2.762,0,5-2.239,5-5V5C94,2.239,91.762,0,89,0z M85.843,75.872
			c0,5.911-4.487,9.971-9.971,9.971H18.128c-5.484,0-9.971-4.06-9.971-9.971V18.128c0-5.911,4.486-9.971,9.971-9.971h57.744
			c5.483,0,9.971,4.06,9.971,9.971V75.872z"/>
		<path d="M71.221,47.676c0,12.922-10.812,23.396-24.146,23.396c-13.336,0-24.147-10.475-24.147-23.396
			c0-2.316,0.35-4.553,0.997-6.666h-7.136v32.815c0,1.698,1.391,3.088,3.089,3.088h54.099c1.697,0,3.088-1.39,3.088-3.088V41.01
			h-6.838C70.871,43.123,71.221,45.359,71.221,47.676z"/>
	</g>
</g>
<g>
</g>
<g>
</g>
<g>
</g>
<g>
</g>
<g>
</g>
<g>
</g>
<g>
</g>
<g>
</g>
<g>
</g>
<g>
</g>
<g>
</g>
<g>
</g>
<g>
</g>
<g>
</g>
<g>
</g>
</svg>
